<mxfile host="app.diagrams.net" modified="2021-07-10T03:25:38.662Z" agent="5.0 (Windows NT 10.0; Win64; x64) AppleWebKit/537.36 (KHTML, like Gecko) Chrome/91.0.4472.114 Safari/537.36" etag="BAHz7_FY75obhSrSDe9U" version="14.7.6" type="github">
  <diagram id="owH23PQb3ucFgT4upQrd" name="Page-1">
    <mxGraphModel dx="1038" dy="529" grid="1" gridSize="10" guides="1" tooltips="1" connect="1" arrows="1" fold="1" page="1" pageScale="1" pageWidth="827" pageHeight="1169" math="0" shadow="0">
      <root>
        <mxCell id="0" />
        <mxCell id="1" parent="0" />
        <mxCell id="XPgUxuzeO4Bc633JZhFU-1" value="" style="rounded=1;whiteSpace=wrap;html=1;dashed=1;fillColor=none;" vertex="1" parent="1">
          <mxGeometry x="60" y="60" width="470" height="260" as="geometry" />
        </mxCell>
        <mxCell id="vsMCEOJ5hqrkt07NcbA5-3" style="edgeStyle=orthogonalEdgeStyle;rounded=0;orthogonalLoop=1;jettySize=auto;html=1;exitX=1;exitY=0.5;exitDx=0;exitDy=0;entryX=0;entryY=0.5;entryDx=0;entryDy=0;" parent="1" source="vsMCEOJ5hqrkt07NcbA5-1" target="vsMCEOJ5hqrkt07NcbA5-2" edge="1">
          <mxGeometry relative="1" as="geometry" />
        </mxCell>
        <mxCell id="vsMCEOJ5hqrkt07NcbA5-10" style="edgeStyle=orthogonalEdgeStyle;rounded=0;orthogonalLoop=1;jettySize=auto;html=1;exitX=0.5;exitY=1;exitDx=0;exitDy=0;entryX=0;entryY=0;entryDx=0;entryDy=0;" parent="1" source="vsMCEOJ5hqrkt07NcbA5-1" target="vsMCEOJ5hqrkt07NcbA5-9" edge="1">
          <mxGeometry relative="1" as="geometry">
            <Array as="points">
              <mxPoint x="180" y="160" />
              <mxPoint x="180" y="200" />
              <mxPoint x="350" y="200" />
            </Array>
          </mxGeometry>
        </mxCell>
        <mxCell id="vsMCEOJ5hqrkt07NcbA5-11" style="edgeStyle=orthogonalEdgeStyle;rounded=0;orthogonalLoop=1;jettySize=auto;html=1;exitX=0.5;exitY=1;exitDx=0;exitDy=0;entryX=0;entryY=0.5;entryDx=0;entryDy=0;" parent="1" source="vsMCEOJ5hqrkt07NcbA5-1" target="vsMCEOJ5hqrkt07NcbA5-9" edge="1">
          <mxGeometry relative="1" as="geometry" />
        </mxCell>
        <mxCell id="vsMCEOJ5hqrkt07NcbA5-1" value="HDFS" style="rounded=0;whiteSpace=wrap;html=1;" parent="1" vertex="1">
          <mxGeometry x="80" y="100" width="120" height="60" as="geometry" />
        </mxCell>
        <mxCell id="vsMCEOJ5hqrkt07NcbA5-6" style="edgeStyle=orthogonalEdgeStyle;rounded=0;orthogonalLoop=1;jettySize=auto;html=1;exitX=1;exitY=0.5;exitDx=0;exitDy=0;entryX=0;entryY=0.5;entryDx=0;entryDy=0;" parent="1" source="vsMCEOJ5hqrkt07NcbA5-2" target="vsMCEOJ5hqrkt07NcbA5-4" edge="1">
          <mxGeometry relative="1" as="geometry">
            <mxPoint x="590" y="130.33333333333337" as="targetPoint" />
          </mxGeometry>
        </mxCell>
        <mxCell id="vsMCEOJ5hqrkt07NcbA5-2" value="DistributedFile&lt;br&gt;System(DFS)" style="rounded=0;whiteSpace=wrap;html=1;" parent="1" vertex="1">
          <mxGeometry x="353" y="100" width="117" height="60" as="geometry" />
        </mxCell>
        <mxCell id="vsMCEOJ5hqrkt07NcbA5-4" value="NameNode" style="rounded=0;whiteSpace=wrap;html=1;" parent="1" vertex="1">
          <mxGeometry x="680" y="100" width="120" height="60" as="geometry" />
        </mxCell>
        <mxCell id="vsMCEOJ5hqrkt07NcbA5-5" value="1.初始化FS，&lt;br&gt;DFS.open()" style="text;html=1;align=center;verticalAlign=middle;resizable=0;points=[];autosize=1;strokeColor=none;" parent="1" vertex="1">
          <mxGeometry x="220" y="115" width="100" height="30" as="geometry" />
        </mxCell>
        <mxCell id="vsMCEOJ5hqrkt07NcbA5-7" value="2.RPC, &lt;br&gt;getBlockLocations()" style="text;html=1;align=center;verticalAlign=middle;resizable=0;points=[];autosize=1;strokeColor=none;" parent="1" vertex="1">
          <mxGeometry x="530" y="115" width="140" height="30" as="geometry" />
        </mxCell>
        <mxCell id="vsMCEOJ5hqrkt07NcbA5-17" style="edgeStyle=orthogonalEdgeStyle;rounded=0;orthogonalLoop=1;jettySize=auto;html=1;exitX=0.5;exitY=1;exitDx=0;exitDy=0;entryX=0.553;entryY=0.025;entryDx=0;entryDy=0;entryPerimeter=0;" parent="1" source="vsMCEOJ5hqrkt07NcbA5-9" target="vsMCEOJ5hqrkt07NcbA5-14" edge="1">
          <mxGeometry relative="1" as="geometry" />
        </mxCell>
        <mxCell id="vsMCEOJ5hqrkt07NcbA5-18" style="edgeStyle=orthogonalEdgeStyle;rounded=0;orthogonalLoop=1;jettySize=auto;html=1;exitX=1;exitY=0.5;exitDx=0;exitDy=0;entryX=0.5;entryY=0;entryDx=0;entryDy=0;" parent="1" source="vsMCEOJ5hqrkt07NcbA5-9" target="vsMCEOJ5hqrkt07NcbA5-16" edge="1">
          <mxGeometry relative="1" as="geometry" />
        </mxCell>
        <mxCell id="vsMCEOJ5hqrkt07NcbA5-9" value="DFSInputStream" style="rounded=0;whiteSpace=wrap;html=1;fillColor=none;gradientColor=none;" parent="1" vertex="1">
          <mxGeometry x="350" y="250" width="120" height="60" as="geometry" />
        </mxCell>
        <mxCell id="vsMCEOJ5hqrkt07NcbA5-12" value="3. read()" style="text;html=1;align=center;verticalAlign=middle;resizable=0;points=[];autosize=1;strokeColor=none;" parent="1" vertex="1">
          <mxGeometry x="215" y="180" width="70" height="20" as="geometry" />
        </mxCell>
        <mxCell id="vsMCEOJ5hqrkt07NcbA5-13" value="6. close()" style="text;html=1;align=center;verticalAlign=middle;resizable=0;points=[];autosize=1;strokeColor=none;" parent="1" vertex="1">
          <mxGeometry x="215" y="260" width="70" height="20" as="geometry" />
        </mxCell>
        <mxCell id="vsMCEOJ5hqrkt07NcbA5-14" value="DataNode" style="rounded=0;whiteSpace=wrap;html=1;fillColor=none;gradientColor=none;" parent="1" vertex="1">
          <mxGeometry x="354" y="370" width="120" height="60" as="geometry" />
        </mxCell>
        <mxCell id="vsMCEOJ5hqrkt07NcbA5-15" value="DataNode" style="rounded=0;whiteSpace=wrap;html=1;fillColor=none;gradientColor=none;" parent="1" vertex="1">
          <mxGeometry x="520" y="370" width="120" height="60" as="geometry" />
        </mxCell>
        <mxCell id="vsMCEOJ5hqrkt07NcbA5-16" value="DataNode" style="rounded=0;whiteSpace=wrap;html=1;fillColor=none;gradientColor=none;" parent="1" vertex="1">
          <mxGeometry x="680" y="370" width="120" height="60" as="geometry" />
        </mxCell>
        <mxCell id="vsMCEOJ5hqrkt07NcbA5-19" value="4. read" style="text;html=1;align=center;verticalAlign=middle;resizable=0;points=[];autosize=1;strokeColor=none;" parent="1" vertex="1">
          <mxGeometry x="420" y="330" width="60" height="20" as="geometry" />
        </mxCell>
        <mxCell id="vsMCEOJ5hqrkt07NcbA5-21" value="5. read" style="text;html=1;align=center;verticalAlign=middle;resizable=0;points=[];autosize=1;strokeColor=none;" parent="1" vertex="1">
          <mxGeometry x="560" y="260" width="60" height="20" as="geometry" />
        </mxCell>
        <mxCell id="XPgUxuzeO4Bc633JZhFU-4" value="&lt;font style=&quot;font-size: 22px&quot;&gt;Client Node&lt;/font&gt;" style="text;html=1;strokeColor=none;fillColor=none;align=center;verticalAlign=middle;whiteSpace=wrap;rounded=0;dashed=1;" vertex="1" parent="1">
          <mxGeometry x="190" y="70" width="220" height="20" as="geometry" />
        </mxCell>
      </root>
    </mxGraphModel>
  </diagram>
</mxfile>
